<svg width="24.000000" height="24.000000" viewBox="0 0 24 24" fill="none" xmlns="http://www.w3.org/2000/svg" xmlns:xlink="http://www.w3.org/1999/xlink">
	<desc>
			Created with Pixso.
	</desc>
	<defs>
		<clipPath id="clip1_27">
			<rect id="bell (1) 1" rx="0.000000" width="23.000000" height="23.000000" transform="translate(0.500000 0.500000)" fill="white" fill-opacity="0"/>
		</clipPath>
	</defs>
	<rect id="bell (1) 1" rx="0.000000" width="23.000000" height="23.000000" transform="translate(0.500000 0.500000)" fill="#FFFFFF" fill-opacity="0"/>
	<g clip-path="url(#clip1_27)">
		<path id="Vector" d="M22.55 13.66L20.65 6.82C20.09 4.82 18.88 3.06 17.21 1.82C15.54 0.59 13.5 -0.05 11.43 0C9.35 0.05 7.35 0.8 5.74 2.12C4.14 3.45 3.02 5.27 2.57 7.3L1.1 13.91C0.94 14.64 0.94 15.4 1.11 16.13C1.28 16.86 1.61 17.54 2.08 18.12C2.55 18.71 3.14 19.18 3.82 19.5C4.49 19.83 5.23 20 5.98 20L7.09 20C7.32 21.13 7.94 22.14 8.83 22.87C9.72 23.6 10.84 24 12 24C13.15 24 14.27 23.6 15.16 22.87C16.05 22.14 16.67 21.13 16.9 20L17.73 20C18.5 20 19.26 19.82 19.95 19.47C20.65 19.13 21.25 18.63 21.71 18.02C22.18 17.41 22.5 16.69 22.64 15.94C22.79 15.18 22.76 14.4 22.55 13.66ZM12 22C11.38 21.99 10.77 21.8 10.27 21.44C9.77 21.08 9.39 20.58 9.18 20L14.81 20C14.6 20.58 14.22 21.08 13.72 21.44C13.22 21.8 12.61 21.99 12 22ZM20.12 16.81C19.84 17.18 19.48 17.48 19.07 17.69C18.65 17.89 18.2 18 17.73 18L5.98 18C5.53 17.99 5.09 17.89 4.68 17.7C4.28 17.51 3.92 17.22 3.64 16.87C3.36 16.52 3.16 16.11 3.06 15.67C2.96 15.24 2.96 14.78 3.05 14.34L4.52 7.73C4.88 6.13 5.75 4.7 7.01 3.67C8.27 2.63 9.85 2.04 11.48 2C13.11 1.96 14.71 2.46 16.02 3.43C17.34 4.4 18.29 5.78 18.72 7.36L20.62 14.19C20.75 14.64 20.77 15.11 20.68 15.56C20.59 16.01 20.4 16.44 20.12 16.81Z" fill="#111111" fill-opacity="1.000000" fill-rule="nonzero"/>
	</g>
</svg>
