<svg width="24" height="24" viewBox="0 0 24 24" fill="none" xmlns="http://www.w3.org/2000/svg">
<mask id="mask0_3_39" style="mask-type:luminance" maskUnits="userSpaceOnUse" x="0" y="0" width="24" height="24">
<path d="M0 0.843506L23.1017 0.843506L23.1017 23.9382L-4.05807e-09 23.9382L0 0.843506Z" fill="white"/>
</mask>
<g mask="url(#mask0_3_39)">
<path fill-rule="evenodd" clip-rule="evenodd" d="M-2.04037e-09 12.4553C-3.04913e-09 18.1962 4.17081 22.9701 9.6257 23.9382L9.6257 15.5981L6.73799 15.5981L6.73799 12.3908L9.6257 12.3908L9.6257 9.82444C9.6257 6.93761 11.4863 5.33445 14.118 5.33445C14.9516 5.33445 15.8506 5.46244 16.6842 5.59042L16.6842 8.54172L15.2086 8.54172C13.7965 8.54172 13.476 9.24707 13.476 10.1458L13.476 12.3908L16.5562 12.3908L16.0431 15.5981L13.476 15.5981L13.476 23.9382C18.9309 22.9701 23.1017 18.1972 23.1017 12.4553C23.1017 6.06867 17.9038 0.843506 11.5508 0.843506C5.19788 0.843506 -9.18139e-10 6.06867 -2.04037e-09 12.4553Z" fill="#111111"/>
</g>
</svg>
