<svg width="28" height="28" viewBox="0 0 28 28" fill="none" xmlns="http://www.w3.org/2000/svg">
<mask id="mask0_3_44" style="mask-type:luminance" maskUnits="userSpaceOnUse" x="0" y="0" width="28" height="28">
<path d="M0.785156 0H27.9158V27.1224H0.785156V0Z" fill="white"/>
</mask>
<g mask="url(#mask0_3_44)">
<path d="M27.3512 7.35463C27.1976 6.80679 26.8984 6.31081 26.4853 5.91941C26.0606 5.51596 25.5401 5.22737 24.9728 5.08087C22.8498 4.52147 14.3444 4.52147 14.3444 4.52147C10.7986 4.48114 7.2536 4.65853 3.72953 5.05262C3.16226 5.20994 2.64268 5.50498 2.21699 5.91149C1.79873 6.31381 1.49577 6.80992 1.33751 7.3535C0.957334 9.40095 0.772619 11.4799 0.785854 13.5623C0.772289 15.6428 0.956551 17.721 1.33751 19.771C1.49238 20.3123 1.79421 20.8062 2.2136 21.2051C2.633 21.604 3.15526 21.8922 3.72953 22.0448C5.88076 22.6031 14.3444 22.6031 14.3444 22.6031C17.8947 22.6434 21.4442 22.4661 24.9728 22.0719C25.5401 21.9254 26.0606 21.6368 26.4853 21.2334C26.8982 20.842 27.1971 20.346 27.3501 19.7981C27.7402 17.7515 27.9299 15.6717 27.9165 13.5883C27.9458 11.496 27.7564 9.4064 27.3512 7.3535V7.35463ZM11.6404 17.4317V9.69393L18.7169 13.5634L11.6404 17.4317Z" fill="#111111"/>
</g>
</svg>
